<svg width="24" height="24" viewBox="0 0 24 24" fill="none" xmlns="http://www.w3.org/2000/svg">
  <!-- Brain outline -->
  <path d="M12 3C7.5 3 4 6.5 4 11C4 13.5 5 15.5 6.5 17C7 17.5 7.5 18 8 18.5C8.5 19 9 19.5 9.5 20C10 20.5 10.5 21 12 21C13.5 21 14 20.5 14.5 20C15 19.5 15.5 19 16 18.5C16.5 18 17 17.5 17.5 17C19 15.5 20 13.5 20 11C20 6.5 16.5 3 12 3Z" stroke="#667eea" stroke-width="1.5" fill="none"/>
  
  <!-- Neural pathways -->
  <path d="M8 9C8.5 9 9 8.5 9 8C9 7.5 8.5 7 8 7C7.5 7 7 7.5 7 8C7 8.5 7.5 9 8 9Z" fill="#667eea"/>
  <path d="M12 8C12.5 8 13 7.5 13 7C13 6.5 12.5 6 12 6C11.5 6 11 6.5 11 7C11 7.5 11.5 8 12 8Z" fill="#667eea"/>
  <path d="M16 9C16.5 9 17 8.5 17 8C17 7.5 16.5 7 16 7C15.5 7 15 7.5 15 8C15 8.5 15.5 9 16 9Z" fill="#667eea"/>
  <path d="M9 13C9.5 13 10 12.5 10 12C10 11.5 9.5 11 9 11C8.5 11 8 11.5 8 12C8 12.5 8.5 13 9 13Z" fill="#5a67d8"/>
  <path d="M15 13C15.5 13 16 12.5 16 12C16 11.5 15.5 11 15 11C14.5 11 14 11.5 14 12C14 12.5 14.5 13 15 13Z" fill="#5a67d8"/>
  
  <!-- Connections -->
  <path d="M8 8L12 7M12 7L16 8M8 8L9 12M16 8L15 12M9 12L15 12" stroke="#667eea" stroke-width="0.8" opacity="0.4"/>
  
  <!-- Intelligence spark -->
  <circle cx="12" cy="10" r="1" fill="#ffd700" opacity="0.8"/>
</svg> 