<svg width="24" height="24" viewBox="0 0 24 24" fill="none" xmlns="http://www.w3.org/2000/svg">
  <!-- Chat bubble base -->
  <path d="M20 2H4C2.9 2 2 2.9 2 4V16C2 17.1 2.9 18 4 18H6L8 20L10 18H20C21.1 18 22 17.1 22 16V4C22 2.9 21.1 2 20 2Z" fill="#667eea" fill-opacity="0.1" stroke="#667eea" stroke-width="1.5"/>
  
  <!-- Neural network nodes -->
  <circle cx="7" cy="7" r="1.5" fill="#667eea"/>
  <circle cx="12" cy="6" r="1.5" fill="#667eea"/>
  <circle cx="17" cy="8" r="1.5" fill="#667eea"/>
  <circle cx="8" cy="12" r="1.5" fill="#5a67d8"/>
  <circle cx="16" cy="13" r="1.5" fill="#5a67d8"/>
  
  <!-- Neural connections -->
  <path d="M7 7L12 6M12 6L17 8M7 7L8 12M12 6L8 12M17 8L16 13M8 12L16 13" stroke="#667eea" stroke-width="1" opacity="0.6"/>
  
  <!-- AI spark/intelligence indicator -->
  <path d="M14 10L15 9L14 8L13 9Z" fill="#ffd700"/>
  <circle cx="14" cy="9" r="0.5" fill="#ffd700" opacity="0.8"/>
</svg> 